<?xml version="1.0" encoding="UTF-8"?>
<!DOCTYPE svg PUBLIC "-//W3C//DTD SVG 1.1//EN" "http://www.w3.org/Graphics/SVG/1.1/DTD/svg11.dtd">
<svg version="1.2" width="160.01mm" height="160.01mm" viewBox="1500 2000 16001 16001" preserveAspectRatio="xMidYMid" fill-rule="evenodd" stroke-width="28.222" stroke-linejoin="round" xmlns="http://www.w3.org/2000/svg" xmlns:ooo="http://xml.openoffice.org/svg/export" xmlns:xlink="http://www.w3.org/1999/xlink" xmlns:presentation="http://sun.com/xmlns/staroffice/presentation" xmlns:smil="http://www.w3.org/2001/SMIL20/" xmlns:anim="urn:oasis:names:tc:opendocument:xmlns:animation:1.0" xml:space="preserve">
 <defs class="EmbeddedBulletChars">
  <g id="bullet-char-template-57356" transform="scale(0.00048828125,-0.00048828125)">
   <path d="M 580,1141 L 1163,571 580,0 -4,571 580,1141 Z"/>
  </g>
  <g id="bullet-char-template-57354" transform="scale(0.00048828125,-0.00048828125)">
   <path d="M 8,1128 L 1137,1128 1137,0 8,0 8,1128 Z"/>
  </g>
  <g id="bullet-char-template-10146" transform="scale(0.00048828125,-0.00048828125)">
   <path d="M 174,0 L 602,739 174,1481 1456,739 174,0 Z M 1358,739 L 309,1346 659,739 1358,739 Z"/>
  </g>
  <g id="bullet-char-template-10132" transform="scale(0.00048828125,-0.00048828125)">
   <path d="M 2015,739 L 1276,0 717,0 1260,543 174,543 174,936 1260,936 717,1481 1274,1481 2015,739 Z"/>
  </g>
  <g id="bullet-char-template-10007" transform="scale(0.00048828125,-0.00048828125)">
   <path d="M 0,-2 C -7,14 -16,27 -25,37 L 356,567 C 262,823 215,952 215,954 215,979 228,992 255,992 264,992 276,990 289,987 310,991 331,999 354,1012 L 381,999 492,748 772,1049 836,1024 860,1049 C 881,1039 901,1025 922,1006 886,937 835,863 770,784 769,783 710,716 594,584 L 774,223 C 774,196 753,168 711,139 L 727,119 C 717,90 699,76 672,76 641,76 570,178 457,381 L 164,-76 C 142,-110 111,-127 72,-127 30,-127 9,-110 8,-76 1,-67 -2,-52 -2,-32 -2,-23 -1,-13 0,-2 Z"/>
  </g>
  <g id="bullet-char-template-10004" transform="scale(0.00048828125,-0.00048828125)">
   <path d="M 285,-33 C 182,-33 111,30 74,156 52,228 41,333 41,471 41,549 55,616 82,672 116,743 169,778 240,778 293,778 328,747 346,684 L 369,508 C 377,444 397,411 428,410 L 1163,1116 C 1174,1127 1196,1133 1229,1133 1271,1133 1292,1118 1292,1087 L 1292,965 C 1292,929 1282,901 1262,881 L 442,47 C 390,-6 338,-33 285,-33 Z"/>
  </g>
  <g id="bullet-char-template-9679" transform="scale(0.00048828125,-0.00048828125)">
   <path d="M 813,0 C 632,0 489,54 383,161 276,268 223,411 223,592 223,773 276,916 383,1023 489,1130 632,1184 813,1184 992,1184 1136,1130 1245,1023 1353,916 1407,772 1407,592 1407,412 1353,268 1245,161 1136,54 992,0 813,0 Z"/>
  </g>
  <g id="bullet-char-template-8226" transform="scale(0.00048828125,-0.00048828125)">
   <path d="M 346,457 C 273,457 209,483 155,535 101,586 74,649 74,723 74,796 101,859 155,911 209,963 273,989 346,989 419,989 480,963 531,910 582,859 608,796 608,723 608,648 583,586 532,535 482,483 420,457 346,457 Z"/>
  </g>
  <g id="bullet-char-template-8211" transform="scale(0.00048828125,-0.00048828125)">
   <path d="M -4,459 L 1135,459 1135,606 -4,606 -4,459 Z"/>
  </g>
  <g id="bullet-char-template-61548" transform="scale(0.00048828125,-0.00048828125)">
   <path d="M 173,740 C 173,903 231,1043 346,1159 462,1274 601,1332 765,1332 928,1332 1067,1274 1183,1159 1299,1043 1357,903 1357,740 1357,577 1299,437 1183,322 1067,206 928,148 765,148 601,148 462,206 346,322 231,437 173,577 173,740 Z"/>
  </g>
 </defs>
 <g class="Page">
  <g class="com.sun.star.drawing.CustomShape">
   <g id="id3">
    <rect class="BoundingBox" stroke="none" fill="none" x="1500" y="2000" width="16001" height="16001"/>
    <path fill="rgb(171,164,164)" stroke="none" d="M 9500,18000 L 1500,18000 1500,2000 17500,2000 17500,18000 9500,18000 Z"/>
   </g>
  </g>
  <g class="Group">
   <g class="com.sun.star.drawing.PolyPolygonShape">
    <g id="id4">
     <rect class="BoundingBox" stroke="none" fill="none" x="3099" y="7943" width="4470" height="3563"/>
     <path fill="rgb(25,32,114)" stroke="none" d="M 4910,11505 L 3100,8178 5758,7943 7567,11270 4910,11505 Z"/>
    </g>
   </g>
   <g class="com.sun.star.drawing.PolyPolygonShape">
    <g id="id5">
     <rect class="BoundingBox" stroke="none" fill="none" x="6021" y="7685" width="4468" height="3563"/>
     <path fill="rgb(25,32,114)" stroke="none" d="M 7831,11246 L 6021,7920 8678,7686 10488,11012 7831,11246 Z"/>
    </g>
   </g>
   <g class="com.sun.star.drawing.PolyPolygonShape">
    <g id="id6">
     <rect class="BoundingBox" stroke="none" fill="none" x="8945" y="7427" width="4467" height="3563"/>
     <path fill="rgb(25,32,114)" stroke="none" d="M 10754,10988 L 8945,7662 11601,7427 13411,10754 10754,10988 Z"/>
    </g>
   </g>
   <g class="com.sun.star.drawing.PolyPolygonShape">
    <g id="id7">
     <rect class="BoundingBox" stroke="none" fill="none" x="5041" y="11516" width="4468" height="3564"/>
     <path fill="rgb(25,32,114)" stroke="none" d="M 6851,15078 L 5041,11752 7698,11517 9508,14844 6851,15078 Z"/>
    </g>
   </g>
   <g class="com.sun.star.drawing.PolyPolygonShape">
    <g id="id8">
     <rect class="BoundingBox" stroke="none" fill="none" x="7959" y="11249" width="4468" height="3563"/>
     <path fill="rgb(25,32,114)" stroke="none" d="M 9770,14811 L 7960,11484 10616,11250 12426,14575 9770,14811 Z"/>
    </g>
   </g>
   <g class="com.sun.star.drawing.PolyPolygonShape">
    <g id="id9">
     <rect class="BoundingBox" stroke="none" fill="none" x="10883" y="10991" width="4469" height="3563"/>
     <path fill="rgb(25,32,114)" stroke="none" d="M 12693,14553 L 10884,11226 13540,10991 15350,14318 12693,14553 Z"/>
    </g>
   </g>
  </g>
  <g class="com.sun.star.drawing.CustomShape">
   <g id="id10">
    <rect class="BoundingBox" stroke="none" fill="none" x="7689" y="5093" width="6747" height="6747"/>
    <path fill="rgb(255,213,80)" stroke="none" d="M 7795,8466 L 9122,8937 9122,7994 7795,8466 Z"/>
    <path fill="none" stroke="rgb(0,0,0)" stroke-width="212" stroke-linejoin="round" d="M 7795,8466 L 9122,8937 9122,7994 7795,8466 Z"/>
    <path fill="rgb(255,213,80)" stroke="none" d="M 8751,10776 L 10023,10171 9356,9504 8751,10776 Z"/>
    <path fill="none" stroke="rgb(0,0,0)" stroke-width="212" stroke-linejoin="round" d="M 8751,10776 L 10023,10171 9356,9504 8751,10776 Z"/>
    <path fill="rgb(255,213,80)" stroke="none" d="M 11062,11733 L 11533,10405 10590,10405 11062,11733 Z"/>
    <path fill="none" stroke="rgb(0,0,0)" stroke-width="212" stroke-linejoin="round" d="M 11062,11733 L 11533,10405 10590,10405 11062,11733 Z"/>
    <path fill="rgb(255,213,80)" stroke="none" d="M 13372,10776 L 12767,9504 12100,10171 13372,10776 Z"/>
    <path fill="none" stroke="rgb(0,0,0)" stroke-width="212" stroke-linejoin="round" d="M 13372,10776 L 12767,9504 12100,10171 13372,10776 Z"/>
    <path fill="rgb(255,213,80)" stroke="none" d="M 14329,8466 L 13001,7994 13001,8937 14329,8466 Z"/>
    <path fill="none" stroke="rgb(0,0,0)" stroke-width="212" stroke-linejoin="round" d="M 14329,8466 L 13001,7994 13001,8937 14329,8466 Z"/>
    <path fill="rgb(255,213,80)" stroke="none" d="M 13372,6155 L 12100,6760 12767,7427 13372,6155 Z"/>
    <path fill="none" stroke="rgb(0,0,0)" stroke-width="212" stroke-linejoin="round" d="M 13372,6155 L 12100,6760 12767,7427 13372,6155 Z"/>
    <path fill="rgb(255,213,80)" stroke="none" d="M 11062,5199 L 10590,6526 11533,6526 11062,5199 Z"/>
    <path fill="none" stroke="rgb(0,0,0)" stroke-width="212" stroke-linejoin="round" d="M 11062,5199 L 10590,6526 11533,6526 11062,5199 Z"/>
    <path fill="rgb(255,213,80)" stroke="none" d="M 8751,6155 L 9356,7427 10023,6760 8751,6155 Z"/>
    <path fill="none" stroke="rgb(0,0,0)" stroke-width="212" stroke-linejoin="round" d="M 8751,6155 L 9356,7427 10023,6760 8751,6155 Z"/>
    <path fill="rgb(255,213,80)" stroke="none" d="M 12696,8466 C 12696,8753 12620,9034 12477,9283 12333,9531 12127,9737 11879,9881 11630,10024 11349,10100 11062,10100 10775,10100 10494,10024 10245,9881 9997,9737 9791,9531 9647,9283 9504,9034 9429,8753 9429,8466 9429,8179 9504,7898 9647,7649 9791,7401 9997,7195 10245,7051 10494,6908 10775,6833 11062,6833 11349,6832 11630,6908 11879,7051 12127,7195 12333,7401 12477,7649 12620,7898 12696,8179 12696,8466 L 12696,8466 Z"/>
    <path fill="none" stroke="rgb(0,0,0)" stroke-width="212" stroke-linejoin="round" d="M 12696,8466 C 12696,8753 12620,9034 12477,9283 12333,9531 12127,9737 11879,9881 11630,10024 11349,10100 11062,10100 10775,10100 10494,10024 10245,9881 9997,9737 9791,9531 9647,9283 9504,9034 9429,8753 9429,8466 9429,8179 9504,7898 9647,7649 9791,7401 9997,7195 10245,7051 10494,6908 10775,6833 11062,6833 11349,6832 11630,6908 11879,7051 12127,7195 12333,7401 12477,7649 12620,7898 12696,8179 12696,8466 L 12696,8466 Z"/>
   </g>
  </g>
 </g>
</svg>